<mxfile host="app.diagrams.net">
  <diagram name="University ERD" id="sample">
    <mxGraphModel dx="1230" dy="794" grid="1" gridSize="10" guides="1" tooltips="1" connect="1" arrows="1" fold="1" page="1" pageScale="1" pageWidth="1169" pageHeight="827" math="0" shadow="0">
      <root>
        <mxCell id="0"/>
        <mxCell id="1" parent="0"/>

        <!-- Student -->
        <mxCell id="student" value="Student&#xa;────────────&#xa;Student_ID&#xa;Name&#xa;Department_ID&#xa;Password&#xa;Phone&#xa;Address&#xa;SSC/HSC Result&#xa;GPA" style="shape=rectangle;rounded=1;whiteSpace=wrap;html=1;fillColor=#dae8fc;" vertex="1" parent="1">
          <mxGeometry x="40" y="60" width="180" height="200" as="geometry"/>
        </mxCell>

        <!-- Course -->
        <mxCell id="course" value="Course&#xa;────────────&#xa;Course_ID&#xa;Course_Code&#xa;Course_Title&#xa;Credit_Hours&#xa;Prerequisite&#xa;Department_ID" style="shape=rectangle;rounded=1;whiteSpace=wrap;html=1;fillColor=#ffe6cc;" vertex="1" parent="1">
          <mxGeometry x="340" y="60" width="200" height="180" as="geometry"/>
        </mxCell>

        <!-- Faculty -->
        <mxCell id="faculty" value="Faculty&#xa;────────────&#xa;Faculty_ID&#xa;Name&#xa;Department_ID&#xa;Designation&#xa;Phone&#xa;Address" style="shape=rectangle;rounded=1;whiteSpace=wrap;html=1;fillColor=#e1d5e7;" vertex="1" parent="1">
          <mxGeometry x="640" y="60" width="200" height="160" as="geometry"/>
        </mxCell>

        <!-- Department -->
        <mxCell id="department" value="Department&#xa;────────────&#xa;Department_ID&#xa;Name&#xa;Credit_Transferred_Student" style="shape=rectangle;rounded=1;whiteSpace=wrap;html=1;fillColor=#d5e8d4;" vertex="1" parent="1">
          <mxGeometry x="340" y="320" width="200" height="120" as="geometry"/>
        </mxCell>

        <!-- Trimester -->
        <mxCell id="trimester" value="Trimester&#xa;────────────&#xa;Trimester_ID&#xa;Name&#xa;Total_Credit_Hours&#xa;SGPA" style="shape=rectangle;rounded=1;whiteSpace=wrap;html=1;fillColor=#fff2cc;" vertex="1" parent="1">
          <mxGeometry x="40" y="320" width="200" height="120" as="geometry"/>
        </mxCell>

        <!-- Batch -->
        <mxCell id="batch" value="Batch&#xa;────────────&#xa;Batch_ID&#xa;Department_ID&#xa;Batch_Name&#xa;Course_Version_ID&#xa;Level/Term" style="shape=rectangle;rounded=1;whiteSpace=wrap;html=1;fillColor=#f8cecc;" vertex="1" parent="1">
          <mxGeometry x="640" y="320" width="200" height="140" as="geometry"/>
        </mxCell>

        <!-- Relationships -->
        <mxCell id="edge1" style="endArrow=block;" edge="1" parent="1" source="student" target="course">
          <mxGeometry relative="1" as="geometry"/>
        </mxCell>
        <mxCell id="edge2" style="endArrow=block;" edge="1" parent="1" source="student" target="batch">
          <mxGeometry relative="1" as="geometry"/>
        </mxCell>
        <mxCell id="edge3" style="endArrow=block;" edge="1" parent="1" source="course" target="faculty">
          <mxGeometry relative="1" as="geometry"/>
        </mxCell>
        <mxCell id="edge4" style="endArrow=block;" edge="1" parent="1" source="course" target="department">
          <mxGeometry relative="1" as="geometry"/>
        </mxCell>
        <mxCell id="edge5" style="endArrow=block;" edge="1" parent="1" source="batch" target="department">
          <mxGeometry relative="1" as="geometry"/>
        </mxCell>
        <mxCell id="edge6" style="endArrow=block;" edge="1" parent="1" source="student" target="trimester">
          <mxGeometry relative="1" as="geometry"/>
        </mxCell>

      </root>
    </mxGraphModel>
  </diagram>
</mxfile>
